<svg class="icon" style="width: 1em;height: 1em;vertical-align: middle;fill: currentColor;overflow: hidden;" viewBox="0 0 1024 1024" version="1.1" xmlns="http://www.w3.org/2000/svg" p-id="5083"><path d="M769.8 148.8l153.6 449.7s101.2 174.9-306 269.8-354.7 32.5-402.2-114.9-112.4-412.2-112.4-412.2-35-104.9 104.9-127.4S600 126.3 600 126.3s145.1-50 169.8 22.5z" fill="#E24911" p-id="5084"></path><path d="M746.6 334.1l-27.5-97.4S236.9 219.2 197 461.5c0 0-17.5 110.9 152.4 113.7 153 2.5 194.7-7.2 218.6-7.5 53.1-0.6 83.7 9.4 65 53.7-17 40.3-109.9 68.7-193.6 71.2-83.7 2.5-153.6 0-153.6 0L317 785s266.1 20 423.4-79.9 108.7-242.3-45-262.3c0 0-57.5-11.2-158.6 11.2s-152.4-26.2-122.4-65 169.9-55 251.1-55 81.1 0.1 81.1 0.1z" fill="#FFFFFF" p-id="5085"></path></svg>